<svg width="617" height="204" viewBox="0 0 617 204" fill="none" xmlns="http://www.w3.org/2000/svg">
<path d="M104.829 46.4894C84.4932 58.468 70.7451 81.2564 70.7451 106.967C70.7451 81.2564 56.9975 58.7602 36.6616 46.4894C38.3801 40.6462 41.5307 35.0952 45.5406 31.0049C52.1279 24.2853 61.007 20.195 70.7451 20.195C80.4837 20.195 89.3622 24.2853 95.6634 30.7128C99.9598 35.0952 103.11 40.3541 104.829 46.4894Z" fill="#7AB655"/>
<path d="M70.7449 110.473V183.805H68.4538C56.4241 183.805 45.2539 180.591 35.2293 175.04C14.3208 163.062 0 140.273 0 113.979V110.473H70.7449Z" fill="#C44C85"/>
<path d="M141.491 110.473V113.979C141.491 140.273 127.17 163.354 106.261 175.04C96.5229 180.591 85.0664 183.805 73.0367 183.805H70.7451V110.473H141.491Z" fill="#24A8E0"/>
<path d="M70.7449 106.675V110.181H0V36.849H2.29133C14.3208 36.849 25.4911 40.0628 35.5157 45.6138C36.0886 45.906 36.3749 46.1982 36.9478 46.4903C56.9968 58.4689 70.7449 80.9652 70.7449 106.675Z" fill="#F15A29"/>
<path d="M141.491 36.8485V110.181H70.7451V106.675C70.7451 80.9649 84.4933 58.4684 104.829 46.1976C105.402 45.9055 105.688 45.6133 106.261 45.3211C115.999 39.7701 127.456 36.5563 139.485 36.5563H141.491V36.8485Z" fill="#1B75BB"/>
<path d="M602.362 18.336C604.58 18.336 606.586 19.1467 608.378 20.768C610.255 22.3893 611.194 24.4373 611.194 26.912V91.424C611.194 92.5333 610.938 93.6 610.426 94.624C609.999 95.648 609.359 96.5867 608.506 97.44C607.652 98.208 606.671 98.848 605.562 99.36C604.538 99.7867 603.471 100 602.362 100C600.314 100 598.436 99.1893 596.73 97.568C595.023 95.8613 594.17 93.8133 594.17 91.424V70.432H566.266V91.424C566.266 93.8133 565.412 95.8613 563.706 97.568C562.084 99.1893 560.079 100 557.69 100C555.044 100 552.868 99.1893 551.162 97.568C549.54 95.9467 548.687 93.8987 548.602 91.424V26.912C548.602 24.2667 549.498 22.176 551.29 20.64C553.167 19.104 555.3 18.336 557.69 18.336C560.079 18.336 562.084 19.1893 563.706 20.896C565.412 22.6027 566.266 24.608 566.266 26.912V53.024H594.17V26.912C594.17 24.608 595.023 22.6027 596.73 20.896C598.436 19.1893 600.314 18.336 602.362 18.336Z" fill="#444545"/>
<path d="M508.693 99.616C504.256 99.616 500.16 98.8053 496.405 97.184C492.651 95.5627 489.365 93.344 486.549 90.528C483.819 87.712 481.643 84.4267 480.021 80.672C478.485 76.9173 477.675 72.9067 477.589 68.64V26.144C477.589 23.9253 478.443 22.048 480.149 20.512C481.856 18.976 483.819 18.208 486.037 18.208C488.256 18.208 490.219 19.0613 491.925 20.768C493.632 22.3893 494.485 24.3093 494.485 26.528V69.28C494.485 71.1573 494.869 72.9493 495.637 74.656C496.405 76.3627 497.429 77.8133 498.709 79.008C499.989 80.2027 501.483 81.184 503.189 81.952C504.896 82.6347 506.688 82.976 508.565 82.976C510.613 82.976 512.491 82.592 514.197 81.824C515.989 81.056 517.525 80.032 518.805 78.752C520.171 77.472 521.195 75.9787 521.877 74.272C522.645 72.48 523.029 70.6027 523.029 68.64V26.144C523.029 23.84 523.84 21.9627 525.461 20.512C527.168 18.976 529.173 18.208 531.477 18.208C533.781 18.2933 535.701 19.1467 537.237 20.768C538.859 22.3893 539.669 24.3093 539.669 26.528V69.664C539.669 73.9307 538.816 77.8987 537.109 81.568C535.403 85.2373 533.141 88.4373 530.325 91.168C527.509 93.8133 524.224 95.904 520.469 97.44C516.715 98.8907 512.789 99.616 508.693 99.616Z" fill="#444545"/>
<path d="M429.563 18.208C440.4 18.208 449.872 22.1333 457.979 29.984C466.085 37.7493 470.181 47.4347 470.267 59.04C470.267 69.9627 466.299 79.52 458.363 87.712C450.427 95.904 440.827 100 429.563 100H407.931C405.627 100 403.579 99.1893 401.787 97.568C400.08 95.8613 399.227 93.7707 399.227 91.296V26.912C399.227 24.6933 400.037 22.688 401.659 20.896C403.365 19.104 405.456 18.208 407.931 18.208H429.563ZM416.507 35.616V82.592H429.563C435.963 82.6773 441.509 80.5013 446.203 76.064C450.981 71.6267 453.371 65.952 453.371 59.04C453.115 52.384 450.725 46.7947 446.203 42.272C441.68 37.7493 436.133 35.5307 429.563 35.616H416.507Z" fill="#444545"/>
<path d="M381.484 82.72C383.958 82.72 386.006 83.5733 387.628 85.28C389.249 86.9867 390.06 88.992 390.06 91.296C390.06 93.7707 389.249 95.8613 387.628 97.568C386.006 99.1893 383.958 100 381.484 100H336.428C334.721 99.9147 333.228 99.488 331.948 98.72C330.668 97.8667 329.686 96.8 329.004 95.52C328.321 94.24 327.98 92.832 327.98 91.296C327.98 89.76 328.406 88.224 329.26 86.688L329.388 86.56L364.46 35.488H336.172C333.868 35.488 331.862 34.6773 330.156 33.056C328.449 31.4347 327.596 29.3867 327.596 26.912C327.596 24.5227 328.449 22.4747 330.156 20.768C331.862 19.0613 333.868 18.208 336.172 18.208H381.228C382.849 18.2933 384.3 18.7627 385.58 19.616C386.945 20.4693 387.969 21.5787 388.652 22.944C389.42 24.224 389.804 25.6747 389.804 27.296C389.804 28.832 389.334 30.368 388.396 31.904L353.068 82.72H381.484Z" fill="#444545"/>
<path d="M319.745 88.352C320.598 90.5707 320.555 92.7893 319.617 95.008C318.678 97.1413 317.099 98.6773 314.881 99.616C312.662 100.469 310.443 100.427 308.225 99.488C306.091 98.464 304.598 96.8 303.745 94.496L302.593 91.68H270.721L269.697 94.496C268.843 96.8 267.307 98.464 265.089 99.488C262.955 100.427 260.779 100.469 258.561 99.616C256.342 98.6773 254.721 97.1413 253.697 95.008C252.758 92.7893 252.715 90.5707 253.569 88.352L278.657 23.968C279.339 22.432 280.449 21.1093 281.985 20C283.521 18.8907 285.099 18.336 286.721 18.336C288.427 18.336 290.006 18.848 291.457 19.872C292.993 20.896 294.102 22.2613 294.785 23.968L319.745 88.352ZM276.097 77.856H297.217L286.721 50.72L276.097 77.856Z" fill="#444545"/>
<path d="M238.035 94.368C237.352 96.0747 236.243 97.44 234.707 98.464C233.256 99.488 231.677 100 229.971 100C228.349 100 226.771 99.4453 225.235 98.336C223.699 97.2267 222.589 95.904 221.907 94.368L196.819 29.984C195.965 27.7653 196.008 25.5893 196.947 23.456C197.971 21.2373 199.592 19.6587 201.811 18.72C204.029 17.8667 206.205 17.952 208.339 18.976C210.557 19.9147 212.093 21.536 212.947 23.84L229.971 67.616L246.995 23.84C247.848 21.536 249.341 19.9147 251.475 18.976C253.693 17.952 255.912 17.8667 258.131 18.72C260.349 19.6587 261.928 21.2373 262.867 23.456C263.805 25.5893 263.848 27.7653 262.995 29.984L238.035 94.368Z" fill="#444545"/>
<path d="M605.2 123.495C606.851 123.495 608.257 124.107 609.418 125.329C610.641 126.552 611.252 127.989 611.252 129.639V175.856C611.252 177.568 610.641 179.035 609.418 180.258C608.257 181.419 606.851 182 605.2 182C603.427 182 601.929 181.419 600.707 180.258C599.545 179.035 598.964 177.568 598.964 175.856V129.639C598.964 127.989 599.545 126.552 600.707 125.329C601.929 124.107 603.427 123.495 605.2 123.495Z" fill="#009988"/>
<path d="M540.372 152.656C540.372 148.621 541.136 144.831 542.665 141.285C544.193 137.739 546.271 134.652 548.9 132.023C551.529 129.334 554.616 127.225 558.162 125.696C561.769 124.168 565.59 123.404 569.624 123.404C574.209 123.404 578.458 124.412 582.371 126.43C586.283 128.386 589.584 131.015 592.274 134.316C593.008 135.416 593.344 136.456 593.283 137.434C593.283 139.084 592.641 140.521 591.357 141.744C590.073 142.966 588.576 143.608 586.864 143.669C585.152 143.608 583.93 143.15 583.196 142.294C581.606 140.276 579.62 138.656 577.235 137.434C574.912 136.211 572.375 135.6 569.624 135.6C567.301 135.6 565.101 136.058 563.022 136.975C560.943 137.831 559.109 139.054 557.52 140.643C555.992 142.172 554.769 143.975 553.852 146.054C552.935 148.071 552.476 150.211 552.476 152.473C552.476 154.857 552.904 157.119 553.76 159.258C554.677 161.337 555.9 163.171 557.428 164.76C559.018 166.289 560.852 167.511 562.93 168.428C565.009 169.284 567.24 169.712 569.624 169.712C572.375 169.712 574.912 169.101 577.235 167.878C579.62 166.656 581.606 165.035 583.196 163.018C584.113 162.162 585.366 161.734 586.956 161.734C588.729 161.734 590.226 162.346 591.449 163.568C592.672 164.791 593.283 166.136 593.283 167.603C593.283 169.009 592.947 170.14 592.274 170.996C589.584 174.297 586.283 176.956 582.371 178.974C578.458 180.93 574.209 181.908 569.624 181.908C565.59 181.908 561.769 181.144 558.162 179.616C554.616 178.087 551.529 176.009 548.9 173.38C546.271 170.69 544.193 167.573 542.665 164.027C541.136 160.481 540.372 156.691 540.372 152.656Z" fill="#009988"/>
<path d="M528.634 123.495C530.285 123.495 531.691 124.107 532.852 125.329C534.075 126.552 534.686 127.989 534.686 129.639V175.856C534.686 177.568 534.075 179.035 532.852 180.258C531.691 181.419 530.285 182 528.634 182C526.861 182 525.363 181.419 524.141 180.258C522.979 179.035 522.398 177.568 522.398 175.856V129.639C522.398 127.989 522.979 126.552 524.141 125.329C525.363 124.107 526.861 123.495 528.634 123.495Z" fill="#009988"/>
<path d="M511.45 123.404C513.223 123.404 514.691 124.015 515.852 125.238C517.075 126.46 517.686 127.928 517.686 129.639C517.686 131.412 517.075 132.879 515.852 134.041C514.691 135.202 513.223 135.783 511.45 135.783H501.18V175.764C501.18 177.537 500.599 179.035 499.438 180.258C498.276 181.419 496.809 182 495.036 182C493.263 182 491.796 181.419 490.635 180.258C489.473 179.035 488.892 177.537 488.892 175.764V135.783H478.53C476.818 135.783 475.351 135.202 474.129 134.041C472.967 132.879 472.386 131.412 472.386 129.639C472.386 127.928 472.967 126.46 474.129 125.238C475.351 124.015 476.818 123.404 478.53 123.404H511.45Z" fill="#009988"/>
<path d="M427.108 152.656C427.108 155.04 427.536 157.272 428.392 159.35C429.309 161.429 430.531 163.263 432.06 164.852C433.649 166.38 435.483 167.603 437.562 168.52C439.64 169.376 441.872 169.804 444.256 169.804C446.64 169.804 448.841 169.376 450.858 168.52C452.937 167.603 454.74 166.38 456.268 164.852C457.858 163.263 459.081 161.429 459.936 159.35C460.853 157.272 461.312 155.04 461.312 152.656C461.312 150.272 460.853 148.071 459.936 146.054C459.081 143.975 457.858 142.172 456.268 140.643C454.74 139.054 452.937 137.831 450.858 136.975C448.841 136.058 446.64 135.6 444.256 135.6C441.872 135.6 439.64 136.058 437.562 136.975C435.483 137.831 433.649 139.054 432.06 140.643C430.531 142.172 429.309 143.975 428.392 146.054C427.536 148.071 427.108 150.272 427.108 152.656ZM415.003 152.656C415.003 148.621 415.768 144.831 417.296 141.285C418.824 137.739 420.903 134.652 423.532 132.023C426.16 129.334 429.247 127.225 432.793 125.696C436.4 124.168 440.221 123.404 444.256 123.404C448.291 123.404 452.081 124.168 455.627 125.696C459.172 127.225 462.259 129.334 464.888 132.023C467.517 134.652 469.595 137.739 471.124 141.285C472.652 144.831 473.416 148.621 473.416 152.656C473.416 156.691 472.652 160.481 471.124 164.027C469.595 167.573 467.517 170.69 464.888 173.38C462.259 176.009 459.172 178.087 455.627 179.616C452.081 181.144 448.291 181.908 444.256 181.908C440.221 181.908 436.4 181.144 432.793 179.616C429.247 178.087 426.16 176.009 423.532 173.38C420.903 170.69 418.824 167.573 417.296 164.027C415.768 160.481 415.003 156.691 415.003 152.656Z" fill="#009988"/>
<path d="M392.205 123.587C394.589 123.587 396.851 124.046 398.991 124.963C401.131 125.88 402.965 127.133 404.493 128.722C406.082 130.251 407.336 132.085 408.253 134.224C409.17 136.364 409.628 138.626 409.628 141.01C409.628 143.15 409.261 145.198 408.528 147.154C407.794 149.049 406.785 150.761 405.502 152.289C406.908 153.879 408.008 155.682 408.803 157.7C409.598 159.656 409.995 161.795 409.995 164.119C409.995 166.625 409.506 168.979 408.528 171.179C407.611 173.319 406.357 175.184 404.768 176.773C403.179 178.363 401.283 179.646 399.083 180.625C396.882 181.542 394.559 182 392.113 182H371.206C369.433 182 367.935 181.419 366.713 180.258C365.551 179.035 364.97 177.568 364.97 175.856V129.731C364.97 128.08 365.551 126.644 366.713 125.421C367.935 124.198 369.433 123.587 371.206 123.587H392.205ZM386.061 152.289C386.061 150.639 386.642 149.233 387.804 148.071C389.026 146.848 390.463 146.237 392.113 146.237C393.642 146.115 394.895 145.565 395.873 144.586C396.851 143.547 397.34 142.325 397.34 140.918C397.34 139.512 396.821 138.32 395.781 137.342C394.803 136.303 393.611 135.783 392.205 135.783H377.258V169.896H392.113C393.703 169.896 395.048 169.345 396.148 168.245C397.31 167.084 397.891 165.708 397.891 164.119C397.891 162.59 397.34 161.276 396.24 160.175C395.201 159.075 393.825 158.464 392.113 158.341C390.463 158.341 389.026 157.761 387.804 156.599C386.642 155.376 386.061 153.94 386.061 152.289Z" fill="#009988"/>
<path d="M336.38 181.725C333.201 181.725 330.266 181.144 327.577 179.983C324.887 178.821 322.533 177.232 320.516 175.214C318.559 173.197 317.001 170.843 315.839 168.153C314.739 165.463 314.158 162.59 314.097 159.533V129.089C314.097 127.5 314.708 126.155 315.931 125.054C317.153 123.954 318.559 123.404 320.149 123.404C321.738 123.404 323.144 124.015 324.367 125.238C325.59 126.399 326.201 127.775 326.201 129.364V159.992C326.201 161.337 326.476 162.621 327.026 163.843C327.577 165.066 328.31 166.105 329.227 166.961C330.144 167.817 331.214 168.52 332.437 169.07C333.659 169.559 334.943 169.804 336.288 169.804C337.755 169.804 339.1 169.529 340.323 168.979C341.607 168.428 342.707 167.695 343.624 166.778C344.602 165.861 345.336 164.791 345.825 163.568C346.375 162.284 346.65 160.94 346.65 159.533V129.089C346.65 127.438 347.231 126.094 348.392 125.054C349.615 123.954 351.052 123.404 352.702 123.404C354.353 123.465 355.728 124.076 356.829 125.238C357.99 126.399 358.571 127.775 358.571 129.364V160.267C358.571 163.324 357.96 166.166 356.737 168.795C355.515 171.424 353.894 173.716 351.877 175.673C349.86 177.568 347.506 179.066 344.816 180.166C342.126 181.205 339.314 181.725 336.38 181.725Z" fill="#009988"/>
<path d="M291.095 169.896C292.562 169.651 293.785 169.162 294.763 168.428C295.741 167.634 296.292 166.442 296.414 164.852C296.353 163.385 295.833 162.285 294.855 161.551C293.877 160.756 292.685 160.206 291.279 159.9L284.86 158.8C282.598 158.494 280.427 157.944 278.349 157.149C276.27 156.293 274.406 155.071 272.755 153.481C271.105 151.831 269.79 149.905 268.812 147.704C267.834 145.503 267.375 143.18 267.437 140.735C267.437 138.351 267.895 136.119 268.812 134.041C269.729 131.901 270.982 130.098 272.572 128.631C274.222 127.102 276.148 125.88 278.349 124.963C279.877 124.351 281.497 123.923 283.209 123.679C284.615 123.434 286.082 123.312 287.611 123.312C289.383 123.312 290.973 123.465 292.379 123.771C294.885 124.198 297.209 125.024 299.348 126.246C300.387 126.613 302.099 127.928 304.483 130.19C304.789 130.556 305.095 131.015 305.4 131.565C305.767 132.115 306.042 132.665 306.226 133.216C306.593 134.866 306.317 136.425 305.4 137.892C304.483 139.36 303.169 140.277 301.457 140.643C300.112 140.949 298.951 140.857 297.973 140.368C296.995 139.818 296.047 139.146 295.13 138.351C294.152 137.312 293.174 136.547 292.196 136.058C291.217 135.508 289.811 135.233 287.977 135.233C286.205 135.233 284.737 135.447 283.576 135.875C282.414 136.242 281.467 136.853 280.733 137.709C280 138.565 279.633 139.635 279.633 140.918C279.572 142.447 280.061 143.731 281.1 144.77C282.2 145.748 283.606 146.329 285.318 146.512L291.187 147.337C294.182 147.765 296.964 148.53 299.532 149.63C302.099 150.73 304.025 151.984 305.309 153.39C306.593 154.796 307.479 156.324 307.968 157.975C308.518 159.564 308.793 161.612 308.793 164.119C308.732 166.38 308.243 168.612 307.326 170.813C306.409 172.952 305.125 174.847 303.475 176.498C301.885 178.087 299.99 179.371 297.789 180.349C295.65 181.266 293.388 181.755 291.004 181.817L289.536 181.908C288.864 181.969 288.191 181.969 287.519 181.908C285.746 181.908 284.157 181.755 282.751 181.45C280.244 181.022 277.921 180.197 275.781 178.974C272.541 177.14 269.974 174.572 268.079 171.271C267.834 170.843 267.589 170.324 267.345 169.712C267.162 169.101 267.07 168.52 267.07 167.97C267.07 166.258 267.681 164.791 268.904 163.568C270.126 162.346 271.594 161.734 273.305 161.734C274.65 161.734 275.751 162.101 276.607 162.835C277.462 163.507 278.227 164.363 278.899 165.402C279.633 166.625 280.58 167.603 281.742 168.337C282.903 169.07 283.851 169.559 284.585 169.804C285.379 169.987 286.235 170.11 287.152 170.171C288.069 170.171 289.383 170.079 291.095 169.896Z" fill="#009988"/>
<path d="M218.8 181.725C215.621 181.725 212.686 181.144 209.997 179.983C207.307 178.821 204.953 177.232 202.936 175.214C200.979 173.197 199.42 170.843 198.259 168.153C197.159 165.463 196.578 162.59 196.517 159.533V129.089C196.517 127.5 197.128 126.155 198.351 125.054C199.573 123.954 200.979 123.404 202.569 123.404C204.158 123.404 205.564 124.015 206.787 125.238C208.01 126.399 208.621 127.775 208.621 129.364V159.992C208.621 161.337 208.896 162.621 209.446 163.843C209.997 165.066 210.73 166.105 211.647 166.961C212.564 167.817 213.634 168.52 214.857 169.07C216.079 169.559 217.363 169.804 218.708 169.804C220.175 169.804 221.52 169.529 222.743 168.979C224.027 168.428 225.127 167.695 226.044 166.778C227.022 165.861 227.756 164.791 228.245 163.568C228.795 162.284 229.07 160.94 229.07 159.533V129.089C229.07 127.438 229.651 126.094 230.812 125.054C232.035 123.954 233.472 123.404 235.122 123.404C236.773 123.465 238.148 124.076 239.249 125.238C240.41 126.399 240.991 127.775 240.991 129.364V160.267C240.991 163.324 240.38 166.166 239.157 168.795C237.934 171.424 236.314 173.716 234.297 175.673C232.28 177.568 229.926 179.066 227.236 180.166C224.546 181.205 221.734 181.725 218.8 181.725Z" fill="#009988"/>
</svg>
