<?xml version="1.0" encoding="utf-8"?>
<svg viewBox="0 20.193 141.503 163.633" width="141.503px" height="163.633px" fill="none" xmlns="http://www.w3.org/2000/svg">
  <path d="M104.829 46.4894C84.4932 58.468 70.7451 81.2564 70.7451 106.967C70.7451 81.2564 56.9975 58.7602 36.6616 46.4894C38.3801 40.6462 41.5307 35.0952 45.5406 31.0049C52.1279 24.2853 61.007 20.195 70.7451 20.195C80.4837 20.195 89.3622 24.2853 95.6634 30.7128C99.9598 35.0952 103.11 40.3541 104.829 46.4894Z" fill="#7AB655" transform="matrix(1, 0, 0, 1, -1.4210854715202004e-14, 0)"/>
  <path d="M70.7449 110.473V183.805H68.4538C56.4241 183.805 45.2539 180.591 35.2293 175.04C14.3208 163.062 0 140.273 0 113.979V110.473H70.7449Z" fill="#C44C85" transform="matrix(1, 0, 0, 1, -1.4210854715202004e-14, 0)"/>
  <path d="M141.491 110.473V113.979C141.491 140.273 127.17 163.354 106.261 175.04C96.5229 180.591 85.0664 183.805 73.0367 183.805H70.7451V110.473H141.491Z" fill="#24A8E0" transform="matrix(1, 0, 0, 1, -1.4210854715202004e-14, 0)"/>
  <path d="M70.7449 106.675V110.181H0V36.849H2.29133C14.3208 36.849 25.4911 40.0628 35.5157 45.6138C36.0886 45.906 36.3749 46.1982 36.9478 46.4903C56.9968 58.4689 70.7449 80.9652 70.7449 106.675Z" fill="#F15A29" transform="matrix(1, 0, 0, 1, -1.4210854715202004e-14, 0)"/>
  <path d="M141.491 36.8485V110.181H70.7451V106.675C70.7451 80.9649 84.4933 58.4684 104.829 46.1976C105.402 45.9055 105.688 45.6133 106.261 45.3211C115.999 39.7701 127.456 36.5563 139.485 36.5563H141.491V36.8485Z" fill="#1B75BB" transform="matrix(1, 0, 0, 1, -1.4210854715202004e-14, 0)"/>
</svg>