<?xml version="1.0" encoding="utf-8"?>
<svg viewBox="0 -6.712 141.524 179.187" width="129.239px" height="163.633px" fill="none" xmlns="http://www.w3.org/2000/svg">
  <path d="M 104.829 19.625 C 84.493 31.604 70.745 54.392 70.745 80.103 C 70.745 54.392 56.997 31.896 36.662 19.625 C 38.38 13.782 41.531 8.231 45.541 4.141 C 52.128 -2.579 61.007 -6.669 70.745 -6.669 C 80.484 -6.669 89.362 -2.579 95.663 3.848 C 99.96 8.231 103.11 13.49 104.829 19.625 Z" fill="#FFFFFF"/>
  <path d="M 70.745 99.118 L 70.745 172.45 L 68.454 172.45 C 56.424 172.45 45.254 169.236 35.229 163.685 C 14.321 151.707 0 128.918 0 102.624 L 0 99.118 L 70.745 99.118 Z" fill="#FFFFFF"/>
  <path d="M 141.491 99.118 L 141.491 102.624 C 141.491 128.918 127.17 151.999 106.261 163.685 C 96.523 169.236 85.066 172.45 73.037 172.45 L 70.745 172.45 L 70.745 99.118 L 141.491 99.118 Z" fill="#FFFFFF"/>
  <path d="M 70.745 89.781 L 70.745 93.287 L 0 93.287 L 0 19.955 L 2.291 19.955 C 14.321 19.955 25.491 23.169 35.516 28.72 C 36.089 29.012 36.375 29.304 36.948 29.596 C 56.997 41.575 70.745 64.071 70.745 89.781 Z" fill="#FFFFFF"/>
  <path d="M 141.491 19.954 L 141.491 93.287 L 70.745 93.287 L 70.745 89.781 C 70.745 64.071 84.493 41.574 104.829 29.304 C 105.402 29.011 105.688 28.719 106.261 28.427 C 115.999 22.876 127.456 19.662 139.485 19.662 L 141.491 19.662 L 141.491 19.954 Z" fill="#FFFFFF"/>
</svg>